<?xml version="1.0" encoding="utf-8"?>
<!-- Generator: Adobe Illustrator 19.0.0, SVG Export Plug-In . SVG Version: 6.00 Build 0)  -->
<svg version="1.1" id="Layer_1" xmlns="http://www.w3.org/2000/svg" xmlns:xlink="http://www.w3.org/1999/xlink" x="0px" y="0px"
	 viewBox="0 0 141 218" style="enable-background:new 0 0 141 218;" xml:space="preserve">
<g id="XMLID_2_">
	<path id="XMLID_3_" d="M0.2,41.2L15,0.2h125.8V6c-37,33.7-63,61.3-78.2,82.7C47.6,110.1,40,129.6,40,147.3
		c0,13.6,4.1,24.6,12.5,33.4c8.3,8.6,18.2,13,29.7,13c10.5,0,19.9-3.1,28.2-9.2c8.3-6.1,14.6-15.1,18.5-27h5.8
		c-2.6,19.4-9.4,34.3-20.2,44.6c-10.8,10.4-24.4,15.6-40.6,15.6c-17.3,0-31.7-5.6-43.4-16.7C19,190,13.2,176.9,13.2,161.8
		c0-10.8,2.4-21.5,7.6-32.3c7.7-17,20.3-35.1,37.7-53.9c26.1-28.6,42.4-45.8,48.8-51.6H51.7c-11.3,0-19.3,0.4-23.9,1.2
		c-4.6,0.8-8.7,2.6-12.3,5.1c-3.7,2.6-6.9,6.2-9.6,10.9H0.2z"/>
</g>
</svg>
