<?xml version="1.0" encoding="utf-8"?>
<!-- Generator: Adobe Illustrator 19.0.0, SVG Export Plug-In . SVG Version: 6.00 Build 0)  -->
<svg version="1.1" id="Layer_1" xmlns="http://www.w3.org/2000/svg" xmlns:xlink="http://www.w3.org/1999/xlink" x="0px" y="0px"
	 viewBox="0 0 87 92" style="enable-background:new 0 0 87 92;" xml:space="preserve">
<g id="XMLID_2_">
	<g id="XMLID_17_">
		<path id="XMLID_30_" d="M12.1,73v5.8C10.9,77.2,9,76.3,7,76.3c-3.9,0-6.7,3.2-6.7,7.7c0,4.5,2.7,7.7,6.7,7.7c2,0,3.9-1,5.2-2.6
			v2.3h1.6V73H12.1z M12.1,86c-0.8,2.4-2.8,4-5.1,4c-3,0-5.1-2.4-5.1-6c0-3.6,2-6,5.1-6c2.3,0,4.3,1.6,5.1,4V86z"/>
		<path id="XMLID_27_" d="M28.6,89.6c-0.2,0.1-0.5,0.2-0.7,0.2c-0.6,0-0.8-0.3-0.8-0.9v-6.5c0-3.8-2.1-6-5.6-6c-2,0-3.6,0.5-4.6,0.8
			l-0.3,0.1V79l0.7-0.3c0.9-0.4,2.4-0.8,4.2-0.8c2.5,0,4,1.6,4,4.3V83c-1.3-0.4-2.7-0.6-4-0.6c-2.8,0-5.8,1.3-5.8,4.8
			c0,3,2.4,4.4,4.7,4.4c2,0,3.8-0.8,5.1-2.3c0.2,1.5,1.3,2,2.3,2c0.4,0,0.9-0.1,1.3-0.3l0.3-0.1v-1.7L28.6,89.6z M25.4,86.8
			c-1,2-2.9,3.2-5,3.2c-1.5,0-3.2-0.7-3.2-2.8c0-2.9,3-3.2,4.2-3.2c1.6,0,3,0.4,3.9,0.7V86.8z"/>
		<path id="XMLID_25_" d="M35.9,73v13.9h8.3v4.7h-13V73H35.9z"/>
		<path id="XMLID_22_" d="M52.2,77c3.7,0,7,2.4,7,7.3c0,4.9-3.3,7.3-7,7.3c-3.7,0-7-2.4-7-7.3C45.2,79.4,48.5,77,52.2,77z
			 M52.2,81.3c-1.8,0-2.5,1.5-2.5,3c0,1.5,0.7,3,2.5,3c1.8,0,2.5-1.5,2.5-3C54.6,82.8,54,81.3,52.2,81.3z"/>
		<path id="XMLID_20_" d="M67.7,77c1.3,0,2.7,0.3,3.8,0.9v4.2c-0.9-0.5-2-0.9-3.2-0.9c-1.7,0-3.3,0.8-3.3,3.2c0,2.2,1.5,3.2,3.2,3.2
			c1.3,0,2.5-0.4,3.4-0.9v4.2c-1.2,0.6-2.7,0.9-4.3,0.9c-3.5,0-6.8-2.1-6.8-7C60.5,79.2,64.1,77,67.7,77z"/>
		<path id="XMLID_18_" d="M81.8,91.6l-3-5.2h-0.9v5.2h-4.4V73h4.4v9.7h1l2.7-4.8h4.9l-4,6.8l4.3,7H81.8z"/>
	</g>
	<g id="XMLID_3_">
		<g id="XMLID_4_">
			<g id="XMLID_8_">
				<g id="XMLID_13_">
					<g id="XMLID_15_">
						<path id="XMLID_16_" d="M70.5,51.2c-1,0-1.9-0.8-1.9-1.9V17.9c0-1,0.8-1.9,1.9-1.9c1,0,1.9,0.9,1.9,1.9v31.3
							C72.4,50.3,71.6,51.2,70.5,51.2z"/>
					</g>
					<path id="XMLID_14_" d="M70.5,19.8c-0.3,0-0.6-0.1-0.9-0.3L42.5,4c-0.9-0.5-1.2-1.7-0.7-2.6c0.5-0.9,1.7-1.2,2.6-0.7l27.1,15.6
						c0.9,0.5,1.2,1.7,0.7,2.6C71.8,19.5,71.2,19.8,70.5,19.8z"/>
				</g>
				<g id="XMLID_10_">
					<path id="XMLID_12_" d="M43.3,35.6c-1,0-1.9-0.9-1.9-1.9V2.3c0-1.1,0.8-1.9,1.9-1.9c1,0,1.9,0.8,1.9,1.9v31.4
						C45.2,34.8,44.4,35.6,43.3,35.6z"/>
					<path id="XMLID_11_" d="M16.6,20c-0.6,0-1.3-0.3-1.6-0.9c-0.5-0.9-0.2-2.1,0.7-2.6L42.4,0.6c0.9-0.5,2.1-0.2,2.6,0.7
						c0.5,0.9,0.2,2.1-0.7,2.6L17.5,19.7C17.2,19.9,16.9,20,16.6,20z"/>
				</g>
				<path id="XMLID_9_" d="M43.3,35.6c-0.7,0-1.3-0.3-1.6-1c-0.5-0.9-0.2-2.1,0.7-2.6l27.2-15.8c0.9-0.5,2.1-0.2,2.6,0.7
					c0.5,0.9,0.2,2.1-0.7,2.6L44.2,35.4C43.9,35.5,43.6,35.6,43.3,35.6z"/>
			</g>
			<path id="XMLID_5_" d="M43.3,67.1c-0.3,0-0.7-0.1-1-0.3L15.5,51c-0.6-0.3-0.9-1-0.9-1.6V18.1c0-0.7,0.4-1.3,0.9-1.6
				c0.6-0.3,1.3-0.3,1.9,0l53.9,31.5c0.6,0.3,0.9,1,0.9,1.7c0,0.7-0.4,1.3-1,1.6L44.2,66.8C43.9,67,43.6,67.1,43.3,67.1z M18.4,48.2
				L43.3,63l23.3-13.4L18.4,21.4V48.2z"/>
		</g>
	</g>
</g>
</svg>
