<?xml version="1.0" encoding="utf-8"?>
<!-- Generator: Adobe Illustrator 19.0.0, SVG Export Plug-In . SVG Version: 6.00 Build 0)  -->
<svg version="1.1" id="Layer_1" xmlns="http://www.w3.org/2000/svg" xmlns:xlink="http://www.w3.org/1999/xlink" x="0px" y="0px"
	 viewBox="0 0 232 93" style="enable-background:new 0 0 232 93;" xml:space="preserve">
<style type="text/css">
	.st0{fill:#FFFFFF;}
</style>
<g id="XMLID_2_">
	<g id="XMLID_39_">
		<g id="XMLID_43_">
			<path id="XMLID_44_" class="st0" d="M32.6,36.8l-3.1,8.5h-26v-1.2c7.7-7,13-12.7,16.2-17.1c3.1-4.4,4.7-8.5,4.7-12.1
				c0-2.8-0.9-5.1-2.6-6.9c-1.7-1.8-3.8-2.7-6.1-2.7c-2.2,0-4.1,0.6-5.8,1.9c-1.7,1.3-3,3.1-3.8,5.6H4.8c0.5-4,1.9-7.1,4.2-9.2
				c2.2-2.1,5-3.2,8.4-3.2c3.6,0,6.6,1.1,9,3.4c2.4,2.3,3.6,5,3.6,8.1c0,2.2-0.5,4.5-1.6,6.7c-1.6,3.5-4.2,7.2-7.8,11.1
				c-5.4,5.9-8.8,9.4-10.1,10.7H22c2.3,0,4-0.1,4.9-0.2c0.9-0.2,1.8-0.5,2.5-1.1c0.8-0.5,1.4-1.3,2-2.3H32.6z"/>
		</g>
		<g id="XMLID_40_">
			<path id="XMLID_41_" class="st0" d="M0.5,56.2l3.1-8.5h26v1.2c-7.7,7-13,12.7-16.2,17.1c-3.1,4.4-4.7,8.5-4.7,12.1
				c0,2.8,0.9,5.1,2.6,6.9c1.7,1.8,3.8,2.7,6.1,2.7c2.2,0,4.1-0.6,5.8-1.9c1.7-1.3,3-3.1,3.8-5.6h1.2c-0.5,4-1.9,7.1-4.2,9.2
				c-2.2,2.2-5,3.2-8.4,3.2c-3.6,0-6.6-1.2-9-3.4c-2.4-2.3-3.6-5-3.6-8.1c0-2.2,0.5-4.5,1.6-6.7c1.6-3.5,4.2-7.2,7.8-11.2
				c5.4-5.9,8.8-9.5,10.1-10.7H11.1c-2.3,0-4,0.1-4.9,0.3c-0.9,0.2-1.8,0.5-2.5,1.1c-0.8,0.5-1.4,1.3-2,2.2H0.5z"/>
		</g>
	</g>
	<g id="XMLID_3_">
		<g id="XMLID_24_">
			<path id="XMLID_37_" class="st0" d="M51.9,17.6c0.1,0.5,0.2,0.9,0.4,1.1c0.2,0.2,0.4,0.3,0.7,0.3c0.2,0,0.7-0.1,1.2-0.4
				c1.3-0.6,2.5-0.9,3.6-0.9c1.8,0,3.3,0.6,4.5,1.8c1.2,1.2,1.8,2.7,1.8,4.4c0,1-0.2,1.9-0.6,2.7c-0.4,0.8-1,1.6-1.8,2.2
				c-0.8,0.7-2.1,1.6-3.9,2.7c-1.8,1.1-3,1.9-3.4,2.2c-0.6,0.5-1.1,1.1-1.4,1.7c-0.3,0.6-0.4,1.2-0.4,1.8c0,1,0.4,2,1.2,2.7
				c0.8,0.8,1.8,1.2,3.1,1.2c1.1,0,2.2-0.3,3.1-0.8c0.9-0.6,1.7-1.3,2.1-2.1c0.5-0.9,0.8-2.1,1.1-3.8h0.6v8.2h-0.6
				c-0.1-0.5-0.2-0.9-0.3-1.1c-0.1-0.2-0.4-0.3-0.6-0.3c-0.3,0-0.9,0.2-1.9,0.5c-1,0.4-1.7,0.6-2,0.6c-0.5,0.1-1.1,0.2-1.8,0.2
				c-2,0-3.6-0.7-4.8-2c-1.3-1.3-1.9-2.9-1.9-4.7c0-0.9,0.2-1.8,0.6-2.7c0.4-0.9,1-1.6,1.7-2.2c0.7-0.6,2.1-1.6,4.1-2.7
				c2.4-1.5,4-2.6,4.7-3.5c0.5-0.6,0.7-1.3,0.7-2c0-0.9-0.4-1.8-1.1-2.5c-0.7-0.7-1.6-1.1-2.7-1.1c-1,0-1.9,0.3-2.8,0.8
				c-0.9,0.6-1.6,1.3-2.1,2.2c-0.5,0.9-0.8,2.2-1,3.8h-0.6v-8.2H51.9z"/>
			<path id="XMLID_35_" class="st0" d="M74.6,19.5v9.4h4.7c1.2,0,2-0.2,2.4-0.6c0.5-0.5,0.8-1.5,0.9-2.8h0.6v8.3h-0.6
				c-0.1-1.2-0.3-1.9-0.4-2.2c-0.2-0.4-0.5-0.7-0.9-1c-0.4-0.2-1.1-0.4-2-0.4h-4.7V38c0,1,0,1.7,0.1,1.9c0.1,0.2,0.2,0.4,0.4,0.5
				c0.2,0.1,0.6,0.2,1.2,0.2H80c1.2,0,2.1-0.1,2.6-0.3c0.5-0.2,1.1-0.6,1.6-1.1c0.6-0.7,1.3-1.8,2-3.3h0.6l-1.8,6H68.5v-0.6h0.8
				c0.5,0,1-0.1,1.4-0.4c0.3-0.2,0.6-0.5,0.7-0.8c0.1-0.4,0.2-1.1,0.2-2.3V22.3c0-1.5-0.1-2.4-0.4-2.8c-0.4-0.5-1-0.7-1.9-0.7h-0.8
				v-0.6H85l0.2,5.2h-0.6c-0.2-1.2-0.5-2.1-0.7-2.6c-0.3-0.5-0.7-0.8-1.2-1.1c-0.4-0.2-1.2-0.3-2.2-0.3H74.6z"/>
			<path id="XMLID_33_" class="st0" d="M108.4,17.6l0.5,8.1h-0.5c-0.7-2.4-1.6-4.2-2.8-5.2c-1.2-1.1-2.7-1.6-4.4-1.6
				c-1.4,0-2.7,0.4-3.8,1.2c-1.1,0.8-2.1,2.1-2.7,3.8c-0.7,1.8-1,3.9-1,6.5c0,2.2,0.3,4,0.9,5.6c0.6,1.6,1.6,2.8,2.8,3.6
				c1.2,0.8,2.7,1.3,4.3,1.3c1.4,0,2.6-0.3,3.7-1c1.1-0.7,2.2-2,3.5-3.9l0.5,0.4c-1.1,2.1-2.3,3.7-3.8,4.6c-1.4,1-3.1,1.5-5.1,1.5
				c-3.5,0-6.3-1.5-8.2-4.4c-1.4-2.2-2.2-4.7-2.2-7.7c0-2.4,0.5-4.5,1.4-6.5c1-2,2.3-3.5,3.9-4.6c1.7-1.1,3.5-1.6,5.5-1.6
				c1.6,0,3.1,0.4,4.6,1.3c0.4,0.3,0.8,0.4,0.9,0.4c0.3,0,0.5-0.1,0.8-0.3c0.3-0.3,0.5-0.8,0.6-1.3H108.4z"/>
			<path id="XMLID_30_" class="st0" d="M124.8,17.6c2.8,0,5.2,1.2,7.2,3.5c2,2.4,3.1,5.3,3.1,8.8c0,3.6-1,6.6-3.1,9
				c-2.1,2.4-4.5,3.6-7.4,3.6c-3,0-5.4-1.2-7.4-3.5c-2-2.3-3-5.3-3-9c0-3.8,1.2-6.9,3.5-9.2C119.6,18.6,122,17.6,124.8,17.6z
				 M124.5,18.9c-1.9,0-3.5,0.8-4.6,2.4c-1.4,2-2.2,4.8-2.2,8.6c0,3.9,0.8,6.9,2.2,9c1.1,1.6,2.7,2.4,4.5,2.4c2,0,3.7-0.9,5-2.6
				c1.3-1.7,2-4.5,2-8.2c0-4.1-0.7-7.1-2.2-9.1C128.1,19.7,126.5,18.9,124.5,18.9z"/>
			<path id="XMLID_28_" class="st0" d="M137.3,18.2h5.8L156.2,36V22.3c0-1.5-0.2-2.4-0.4-2.7c-0.4-0.5-1-0.7-1.8-0.7h-0.8v-0.6h7.5
				v0.6h-0.8c-0.9,0-1.6,0.3-1.9,0.9c-0.2,0.4-0.3,1.2-0.3,2.6v20H157l-14.1-19.1v14.6c0,1.5,0.1,2.4,0.4,2.7c0.4,0.5,1,0.7,1.8,0.7
				h0.8v0.6h-7.5v-0.6h0.8c0.9,0,1.6-0.3,1.9-0.9c0.2-0.4,0.4-1.2,0.4-2.6V21.3c-0.6-0.8-1.1-1.3-1.4-1.6c-0.3-0.3-0.8-0.5-1.4-0.7
				c-0.3-0.1-0.8-0.2-1.4-0.2V18.2z"/>
			<path id="XMLID_25_" class="st0" d="M162.6,41.9v-0.6h0.8c0.9,0,1.6-0.3,1.9-1c0.2-0.4,0.3-1.2,0.3-2.6V22.4
				c0-1.5-0.1-2.4-0.4-2.8c-0.4-0.5-1-0.8-1.8-0.8h-0.8v-0.6h8.7c3.2,0,5.6,0.4,7.3,1.2c1.7,0.8,3,2.2,4,4c1,1.9,1.5,4.1,1.5,6.5
				c0,3.3-0.9,6.1-2.7,8.3c-2,2.5-5.1,3.7-9.3,3.7H162.6z M168.7,40.2c1.3,0.3,2.5,0.5,3.4,0.5c2.4,0,4.5-0.9,6.1-2.9
				c1.6-1.9,2.4-4.5,2.4-7.8c0-3.3-0.8-5.9-2.4-7.8c-1.6-1.9-3.7-2.8-6.2-2.8c-1,0-2,0.2-3.2,0.5V40.2z"/>
		</g>
		<g id="XMLID_4_">
			<path id="XMLID_22_" class="st0" d="M62.7,50.5v8.2h-0.6c-0.2-1.6-0.5-2.8-1-3.8c-0.5-0.9-1.2-1.7-2.1-2.2
				c-0.9-0.5-1.8-0.8-2.8-0.8c-1.1,0-2,0.4-2.7,1.1c-0.7,0.7-1.1,1.6-1.1,2.5c0,0.7,0.2,1.4,0.7,2c0.7,0.9,2.2,2.1,4.6,3.5
				c2,1.2,3.4,2.1,4.1,2.7c0.7,0.6,1.3,1.4,1.7,2.3c0.4,0.9,0.6,1.8,0.6,2.7c0,1.8-0.6,3.3-1.9,4.7c-1.3,1.3-2.9,2-4.9,2
				c-0.6,0-1.2-0.1-1.8-0.2c-0.3-0.1-1-0.3-2-0.6c-1-0.4-1.7-0.5-1.9-0.5c-0.3,0-0.5,0.1-0.6,0.3c-0.2,0.2-0.3,0.5-0.3,1.1h-0.6
				v-8.2h0.6c0.3,1.7,0.6,3,1.1,3.8c0.5,0.8,1.2,1.6,2.1,2.1c1,0.6,2,0.8,3.1,0.8c1.3,0,2.3-0.4,3.1-1.2c0.8-0.8,1.1-1.7,1.1-2.7
				c0-0.6-0.1-1.2-0.4-1.8c-0.3-0.6-0.7-1.1-1.3-1.7c-0.4-0.3-1.5-1.1-3.4-2.2c-1.8-1.1-3.1-2-3.9-2.7c-0.8-0.7-1.4-1.4-1.8-2.2
				c-0.4-0.8-0.6-1.7-0.6-2.7c0-1.7,0.6-3.2,1.8-4.4c1.2-1.2,2.7-1.8,4.5-1.8c1.1,0,2.3,0.3,3.6,0.9c0.6,0.3,1,0.4,1.2,0.4
				c0.3,0,0.5-0.1,0.7-0.3c0.2-0.2,0.3-0.6,0.4-1.1H62.7z"/>
			<path id="XMLID_20_" class="st0" d="M82.8,51.1h7.5v0.6h-0.4c-0.3,0-0.7,0.1-1.2,0.4c-0.5,0.3-1,0.7-1.4,1.2
				c-0.4,0.5-1,1.3-1.6,2.5l-5.2,9v6c0,1.5,0.2,2.4,0.4,2.7c0.4,0.5,1,0.7,1.9,0.7h0.7v0.6h-9.1v-0.6h0.8c0.9,0,1.5-0.3,1.9-0.9
				c0.2-0.4,0.4-1.2,0.4-2.6v-5.6l-5.9-10c-0.7-1.2-1.2-1.9-1.4-2.2c-0.3-0.3-0.8-0.7-1.5-1c-0.2-0.1-0.5-0.2-0.9-0.2v-0.6h9.2v0.6
				h-0.5c-0.5,0-0.9,0.1-1.4,0.4c-0.4,0.3-0.6,0.6-0.6,1.2c0,0.4,0.3,1.2,1,2.3l4.5,7.7l4.2-7.3c0.6-1.1,1-1.9,1-2.5
				c0-0.3-0.1-0.6-0.2-0.9c-0.2-0.3-0.4-0.5-0.7-0.6c-0.3-0.1-0.7-0.2-1.3-0.2V51.1z"/>
			<path id="XMLID_18_" class="st0" d="M92.1,51.1h5.8L111,68.9V55.2c0-1.5-0.2-2.4-0.5-2.7c-0.4-0.5-1-0.7-1.8-0.7h-0.7v-0.6h7.4
				v0.6h-0.8c-0.9,0-1.5,0.3-1.9,0.9c-0.2,0.4-0.3,1.2-0.3,2.6v20h-0.6L97.7,56.1v14.6c0,1.5,0.1,2.4,0.4,2.7c0.4,0.5,1,0.7,1.8,0.7
				h0.8v0.6h-7.4v-0.6H94c0.9,0,1.6-0.3,1.9-0.9c0.2-0.4,0.3-1.2,0.3-2.6V54.2c-0.6-0.8-1.1-1.3-1.4-1.6c-0.3-0.3-0.8-0.5-1.4-0.7
				c-0.3-0.1-0.8-0.2-1.4-0.2V51.1z"/>
			<path id="XMLID_15_" class="st0" d="M117.2,74.8v-0.6h0.8c0.9,0,1.6-0.3,1.9-1c0.2-0.4,0.4-1.2,0.4-2.6V55.3
				c0-1.5-0.1-2.4-0.4-2.8c-0.4-0.5-1-0.8-1.8-0.8h-0.8v-0.6h8.7c3.2,0,5.6,0.4,7.3,1.2c1.7,0.8,3,2.2,4,4c1,1.9,1.5,4.1,1.5,6.5
				c0,3.3-0.9,6.1-2.7,8.3c-2,2.5-5.1,3.7-9.3,3.7H117.2z M123.3,73.1c1.3,0.3,2.5,0.5,3.4,0.5c2.4,0,4.5-0.9,6.1-2.8
				c1.6-1.9,2.4-4.5,2.4-7.8c0-3.3-0.8-5.9-2.4-7.8c-1.6-1.9-3.7-2.8-6.2-2.8c-1,0-2,0.2-3.2,0.5V73.1z"/>
			<path id="XMLID_12_" class="st0" d="M162,74.8h-5.7L149,63.7c-0.5,0-1,0-1.3,0c-0.1,0-0.3,0-0.4,0c-0.2,0-0.3,0-0.5,0v6.9
				c0,1.5,0.2,2.4,0.4,2.8c0.4,0.5,1,0.8,1.8,0.8h0.8v0.6h-9.2v-0.6h0.8c0.9,0,1.6-0.3,2-1c0.2-0.4,0.3-1.2,0.3-2.6V55.3
				c0-1.5-0.1-2.4-0.4-2.8c-0.4-0.5-1-0.8-1.8-0.8h-0.8v-0.6h7.8c2.3,0,4,0.2,5,0.6c1.1,0.4,2,1,2.7,2c0.7,1,1.1,2.2,1.1,3.5
				c0,1.5-0.4,2.7-1.3,3.8c-0.9,1.1-2.2,1.8-4,2.3l4.4,6.8c1,1.6,1.9,2.6,2.6,3.1c0.7,0.5,1.7,0.8,2.8,1V74.8z M146.8,62.6
				c0.2,0,0.4,0,0.5,0c0.1,0,0.3,0,0.4,0c2,0,3.6-0.5,4.6-1.5c1-1,1.6-2.2,1.6-3.8c0-1.5-0.4-2.7-1.3-3.6c-0.8-0.9-1.9-1.4-3.3-1.4
				c-0.6,0-1.4,0.1-2.5,0.3V62.6z"/>
			<path id="XMLID_9_" class="st0" d="M172.2,50.5c2.8,0,5.2,1.2,7.2,3.5c2,2.3,3.1,5.3,3.1,8.8c0,3.6-1,6.6-3.1,9
				c-2.1,2.4-4.5,3.6-7.4,3.6c-3,0-5.4-1.2-7.4-3.5c-2-2.3-3-5.3-3-9c0-3.8,1.2-6.8,3.5-9.2C167,51.6,169.4,50.5,172.2,50.5z
				 M171.9,51.8c-1.9,0-3.4,0.8-4.6,2.4c-1.4,2-2.2,4.8-2.2,8.6c0,3.9,0.7,6.9,2.2,9c1.2,1.6,2.7,2.4,4.5,2.4c2,0,3.7-0.9,5-2.6
				c1.3-1.7,2-4.5,2-8.2c0-4.1-0.7-7.1-2.2-9.1C175.6,52.6,174,51.8,171.9,51.8z"/>
			<path id="XMLID_7_" class="st0" d="M196.4,74.8l-8.3-20v15.9c0,1.5,0.1,2.4,0.4,2.7c0.4,0.5,1,0.7,1.8,0.7h0.8v0.6h-7.5v-0.6h0.8
				c0.9,0,1.6-0.3,1.9-0.9c0.2-0.4,0.4-1.2,0.4-2.6V55.2c0-1.1-0.1-1.8-0.3-2.3c-0.2-0.3-0.4-0.6-0.8-0.9c-0.4-0.2-1-0.3-1.9-0.3
				v-0.6h6.1l7.8,18.6l7.6-18.6h6.1v0.6h-0.7c-0.9,0-1.6,0.3-1.9,0.9c-0.2,0.4-0.3,1.2-0.3,2.6v15.5c0,1.5,0.2,2.4,0.4,2.7
				c0.4,0.5,1,0.7,1.8,0.7h0.7v0.6h-9.1v-0.6h0.8c0.9,0,1.6-0.3,1.9-0.9c0.2-0.4,0.4-1.2,0.4-2.6V54.8l-8.3,20H196.4z"/>
			<path id="XMLID_5_" class="st0" d="M219.3,52.4v9.4h4.7c1.2,0,2-0.2,2.4-0.6c0.6-0.5,0.9-1.5,0.9-2.8h0.6v8.3h-0.6
				c-0.1-1.2-0.3-1.9-0.4-2.2c-0.2-0.4-0.5-0.7-0.9-1c-0.4-0.2-1.1-0.3-2-0.3h-4.7v7.8c0,1.1,0,1.7,0.1,1.9c0.1,0.2,0.2,0.4,0.4,0.5
				c0.2,0.1,0.6,0.2,1.2,0.2h3.6c1.2,0,2.1-0.1,2.6-0.3c0.5-0.2,1.1-0.6,1.6-1.1c0.6-0.7,1.3-1.8,2-3.3h0.6l-1.8,6h-17v-0.6h1.2
				c0.5,0,1-0.1,1.4-0.4c0.3-0.2,0.6-0.5,0.7-0.8c0.1-0.4,0.2-1.1,0.2-2.3V55.2c0-1.5-0.1-2.4-0.4-2.8c-0.4-0.5-1-0.7-1.9-0.7h-1.2
				v-0.6h17l0.2,5.2h-0.6c-0.2-1.3-0.5-2.1-0.7-2.6c-0.3-0.5-0.7-0.8-1.2-1.1c-0.4-0.2-1.2-0.3-2.2-0.3H219.3z"/>
		</g>
	</g>
</g>
</svg>
