<?xml version="1.0" encoding="utf-8"?>
<!-- Generator: Adobe Illustrator 19.0.0, SVG Export Plug-In . SVG Version: 6.00 Build 0)  -->
<svg version="1.1" id="Layer_1" xmlns="http://www.w3.org/2000/svg" xmlns:xlink="http://www.w3.org/1999/xlink" x="0px" y="0px"
	 viewBox="0 0 141 218" style="enable-background:new 0 0 141 218;" xml:space="preserve">
<style type="text/css">
	.st0{fill:#FFFFFF;}
</style>
<g id="XMLID_2_">
	<path id="XMLID_3_" class="st0" d="M140.8,176.7L126,217.8H0.2V212c37-33.8,63-61.4,78.2-82.7C93.4,107.9,101,88.4,101,70.7
		c0-13.6-4.1-24.6-12.4-33.4c-8.3-8.7-18.2-13-29.7-13c-10.5,0-19.9,3.1-28.2,9.2C22.2,39.6,16,48.5,12,60.4H6.3
		C8.9,41,15.6,26.2,26.5,15.8C37.3,5.4,50.9,0.2,67.1,0.2c17.3,0,31.8,5.5,43.4,16.6c11.5,11.1,17.3,24.3,17.3,39.3
		c0,10.8-2.5,21.6-7.5,32.4c-7.7,16.9-20.3,34.9-37.7,53.9C56.4,171,40.1,188.1,33.7,194h55.6c11.3,0,19.3-0.4,23.8-1.2
		c4.6-0.9,8.7-2.6,12.3-5.2c3.7-2.6,6.9-6.1,9.6-10.9H140.8z"/>
</g>
</svg>
